<svg id="Capa_1" enable-background="new 0 0 497 497" height="512" viewBox="0 0 497 497" width="512" xmlns="http://www.w3.org/2000/svg"><g><path d="m398.5 242-24.896 187.789 39.904-60.179c9.777-14.745 14.992-32.045 14.992-49.737v-44.765c0-1.989-.79-3.897-2.197-5.303z" fill="#424247"/><path d="m233.5 30v60h30v-60l-15-15z" fill="#2c2c2f"/><path d="m256 0h-15c-4.142 0-7.5 3.358-7.5 7.5v22.5h30v-22.5c0-4.142-3.358-7.5-7.5-7.5z" fill="#424247"/><path d="m301 60h-52.5l-30 210h112.5z" fill="#35cb70"/><path d="m196 60-30 210h82.5v-210z" fill="#2ff761"/><path d="m398.5 150v-26.716c0-2.093-.875-4.091-2.413-5.511l-27.587-25.465-66.411 223.966 84.951-56.634z" fill="#2c2c2f"/><path d="m302.089 259.64-53.589 237.36c49.07 0 92.633-23.564 120-59.991l18.54-177.369z" fill="#424247"/><path d="m113.5 252 15 185.009c27.367 36.427 70.93 59.991 120 59.991 66.274 0 120-67.157 120-150l15-95z" fill="#58585e"/><path d="m368.5 180v-87.692l-54.913-50.689c-4.804-4.435-12.587-1.027-12.587 5.511v139.489c0 28.748-22.743 52.826-51.486 53.371-29.411.558-53.514-23.204-53.514-52.49v-140.37c0-6.538-7.783-9.946-12.587-5.511l-82.5 76.154c-1.538 1.42-2.413 3.418-2.413 5.511v128.716l120 80 30-15 30 15 112.5-75z" fill="#424247"/><path d="m68.5 272v47.872c0 17.692 5.215 34.992 14.992 49.737l39.904 60.179v-262.788z" fill="#58585e"/><path d="m128.5 212-30-62-27.803 27.803c-1.407 1.407-2.197 3.314-2.197 5.303v88.894z" fill="#6e6e76"/><path d="m98.5 150v197c0 33.773 11.164 64.937 30 90.009v-257.009c0-16.569-13.431-30-30-30z" fill="#2ff761"/><path d="m368.5 180v257.009c18.836-25.072 30-56.236 30-90.009v-197c-16.569 0-30 13.431-30 30z" fill="#35cb70"/><path d="m248.5 120c-12.426 0-22.5 10.074-22.5 22.5v45c0 12.426 10.074 22.5 22.5 22.5s22.5-10.074 22.5-22.5v-45c0-12.426-10.074-22.5-22.5-22.5z" fill="#6e6e76"/></g></svg>